<?xml version="1.0" standalone="no"?><!DOCTYPE svg PUBLIC "-//W3C//DTD SVG 1.1//EN" "http://www.w3.org/Graphics/SVG/1.1/DTD/svg11.dtd"><svg t="1744517902958" class="icon" viewBox="0 0 1024 1024" version="1.1" xmlns="http://www.w3.org/2000/svg" p-id="2665" xmlns:xlink="http://www.w3.org/1999/xlink" width="200" height="200"><path d="M928.32256 479.72352a36.0192 36.0192 0 0 0-36.0192 36.0192c0 209.50016-170.43968 379.93984-379.93984 379.93984-209.50528 0-379.94496-170.43968-379.94496-379.93984 0-209.50528 170.43968-379.94496 379.94496-379.94496a36.0192 36.0192 0 0 0 0-72.0384c-249.22112 0-451.97824 202.75712-451.97824 451.97824s202.75712 451.97312 451.97824 451.97312 451.97312-202.752 451.97312-451.97312a36.01408 36.01408 0 0 0-36.01408-36.01408z" fill="#707070" p-id="2666"></path><path d="M634.15808 434.23744h292.34688a36.0192 36.0192 0 0 0 36.00896-35.23584c0.128-5.94432 2.05824-146.70848-93.14304-243.9936-57.38496-58.64448-136.5248-88.37632-235.21792-88.37632a36.0192 36.0192 0 0 0-36.0192 36.0192v295.57248a36.02944 36.02944 0 0 0 36.02432 36.01408z m36.01408-293.888c61.44512 5.9392 110.89408 27.61216 147.328 64.64 48.70656 49.50528 64.92672 116.72576 70.3232 157.21472h-217.64608V140.34944z" fill="#707070" p-id="2667"></path></svg>