<?xml version="1.0" standalone="no"?><!DOCTYPE svg PUBLIC "-//W3C//DTD SVG 1.1//EN" "http://www.w3.org/Graphics/SVG/1.1/DTD/svg11.dtd"><svg t="1744627909678" class="icon" viewBox="0 0 1024 1024" version="1.1" xmlns="http://www.w3.org/2000/svg" p-id="3044" xmlns:xlink="http://www.w3.org/1999/xlink" width="200" height="200"><path d="M511.77472 112.55808c-147.584 0-397.35296 26.15808-397.35296 124.20096 0 3.1488 0.26624 6.2208 0.768 9.22112V423.3216a30.6176 30.6176 0 0 0-0.768 6.7584c0 3.1488 0.26624 6.2208 0.768 9.22112v180.68992a30.6176 30.6176 0 0 0-0.768 6.7584c0 3.1488 0.26624 6.2208 0.768 9.22112v157.98784a30.6176 30.6176 0 0 0-0.768 6.7584c0 98.03776 249.76896 124.20096 397.35296 124.20096s397.35808-26.15808 397.35808-124.20096V236.75904c0-98.03776-249.77408-124.20096-397.35808-124.20096z m0 61.44c212.2496 0 320.94208 42.81344 335.15008 62.76096C832.7168 256.70656 724.0192 299.52 511.77472 299.52c-212.23936 0-320.93696-42.81344-335.14496-62.76096 14.20288-19.9424 122.90048-62.76096 335.14496-62.76096z m335.91808 625.4848c-10.43968 19.34848-119.1936 63.98976-335.91808 63.98976-212.90496 0-321.54112-43.0592-335.20128-62.92992 0.01536-0.37376 0.05632-0.73728 0.05632-1.11104v-100.54656c83.65056 39.66976 233.58976 52.06016 335.14496 52.06016 101.87264 0 252.42624-12.47232 335.91808-52.43904v100.97664z m0-173.9776c-10.39872 19.34848-119.15776 64-335.91808 64-212.59776 0-321.23392-42.93632-335.14496-62.84288V502.2208c83.65056 39.66976 233.58976 52.06016 335.14496 52.06016 101.87264 0 252.42624-12.47232 335.91808-52.43904v123.66336z m0-196.66944c-10.39872 19.34848-119.15776 64-335.91808 64-212.59776 0-321.23392-42.93632-335.14496-62.84288V308.89984C260.28032 348.5696 410.21952 360.96 511.77472 360.96c101.87264 0 252.42624-12.47232 335.91808-52.43904v120.31488z" fill="#707070" p-id="3045"></path></svg>